[img]http://img715.imageshack.us/img715/2632/sherlocki.jpg[/img]
[code]
Sherlock Holmes A Game of Shadows 2011 720P TS READNFO Xvid-26K

Imdb: 
http://www.imdb.com/title/tt1515091/

Plot:
Sherlock Holmes and his sidekick Dr. Watson join forces to outwit and bring down their fiercest adversary, Professor Moriarty.

Sources:
OWN VIDEO!
own cam audio/unknown line

Notes:
why readnfo?
720p cam :) veyr good quality a  bit dark in few places so added a bit of brightness not too much as it will ruin the video! video has tiny bit of flicker!! in it !

also the audio is a mix of cam and line!! synced best i coul it may have slight oss but it goes back to been sync better than nothing!!

so bottom line take it or leave it :) 
and unknown it would be nice if you give the full line bro if you have it..!

Greetz:
Xtreme Encode|FYA|ILLUMANTI|CM8|RX|VISION|HDSCENE|NIGHTMAREZ|xTriLL|DTRG|CRYS|REMIXHD|BIDA|RX|REFILL| INSPiRAL
To all the people who have helped me :P you know who you are

Anything to offer email us @: 26k@hushmail.me

Video
ID                                       : 0
Format                                   : MPEG-4 Visual
Format profile                           : Advanced Simple@L5
Format settings, BVOP                    : 2
Format settings, QPel                    : No
Format settings, GMC                     : No warppoints
Format settings, Matrix                  : Default (H.263)
Codec ID                                 : XVID
Codec ID/Hint                            : XviD
Duration                                 : 2h 0mn
Bit rate                                 : 2 600 Kbps
Width                                    : 1 280 pixels
Height                                   : 540 pixels
Display aspect ratio                     : 2.35:1
Frame rate                               : 25.000 fps
Color space                              : YUV
Chroma subsampling                       : 4:2:0
Bit depth                                : 8 bits
Scan type                                : Progressive
Compression mode                         : Lossy
Bits/(Pixel*Frame)                       : 0.150
Stream size                              : 2.18 GiB (95%)
Writing library                          : XviD 63

Audio
ID                                       : 1
Format                                   : MPEG Audio
Format version                           : Version 1
Format profile                           : Layer 3
Mode                                     : Joint stereo
Mode extension                           : MS Stereo
Codec ID                                 : 55
Codec ID/Hint                            : MP3
Duration                                 : 2h 0mn
Bit rate mode                            : Constant
Bit rate                                 : 128 Kbps
Channel(s)                               : 2 channels
Sampling rate                            : 44.1 KHz
Compression mode                         : Lossy
Stream size                              : 110 MiB (5%)
Alignment                                : Aligned on interleaves
Interleave, duration                     : 40 ms (1.00 video frame)
Writing library                          : LAME3.98r
Encoding settings                        : -m j -V 4 -q 2 -lowpass 17 -b 128

[/code]
Screens:
[img]http://img24.imageshack.us/img24/5290/vlcsnap2011123115h49m46.png[/img]
[img]http://img42.imageshack.us/img42/7600/vlcsnap2011123118h04m23.png[/img]
[img]http://img861.imageshack.us/img861/3263/vlcsnap2011123118h04m27.png[/img]
[img]http://img824.imageshack.us/img824/7105/vlcsnap2011123118h04m35.png[/img]
[img]http://img18.imageshack.us/img18/4837/vlcsnap2011123118h04m43.png[/img]


[img]http://img851.imageshack.us/img851/5503/26ks.jpg[/img]#
Thank you smallz for banner!